<svg width="2387" height="915" viewBox="0 0 2387 915" fill="none" xmlns="http://www.w3.org/2000/svg">
<rect width="2387" height="915" fill="#F6F8FA"/>
<rect x="1610" y="180" width="160" height="160" fill="white" stroke="#AAAAAA"/>
<path d="M1705.34 263.188C1705.34 269.479 1704.04 274.292 1701.44 277.625C1698.83 280.958 1695.02 282.625 1690 282.625C1685.04 282.625 1681.25 280.99 1678.62 277.719C1676 274.448 1674.66 269.76 1674.59 263.656V255.281C1674.59 248.927 1675.91 244.104 1678.53 240.812C1681.18 237.521 1684.98 235.875 1689.94 235.875C1694.9 235.875 1698.69 237.51 1701.31 240.781C1703.94 244.031 1705.28 248.708 1705.34 254.812V263.188ZM1696.31 254C1696.31 250.229 1695.79 247.49 1694.75 245.781C1693.73 244.052 1692.12 243.188 1689.94 243.188C1687.81 243.188 1686.24 244.01 1685.22 245.656C1684.22 247.281 1683.69 249.833 1683.62 253.312V264.375C1683.62 268.083 1684.12 270.844 1685.12 272.656C1686.15 274.448 1687.77 275.344 1690 275.344C1692.21 275.344 1693.8 274.479 1694.78 272.75C1695.76 271.021 1696.27 268.375 1696.31 264.812V254Z" fill="#5D6B79"/>
<rect x="1610" y="340" width="160" height="160" fill="white" stroke="#AAAAAA"/>
<path d="M1696.66 442H1687.62V407.188L1676.84 410.531V403.188L1695.69 396.438H1696.66V442Z" fill="#5D6B79"/>
<rect x="1610" y="500" width="160" height="160" fill="white" stroke="#AAAAAA"/>
<path d="M1696.66 602H1687.62V567.188L1676.84 570.531V563.188L1695.69 556.438H1696.66V602Z" fill="#5D6B79"/>
<rect x="1610" y="660" width="160" height="160" fill="white" stroke="#AAAAAA"/>
<path d="M1696.66 762H1687.62V727.188L1676.84 730.531V723.188L1695.69 716.438H1696.66V762Z" fill="#5D6B79"/>
<rect x="1770" y="660" width="160" height="160" fill="white" stroke="#AAAAAA"/>
<path d="M1865.34 743.188C1865.34 749.479 1864.04 754.292 1861.44 757.625C1858.83 760.958 1855.02 762.625 1850 762.625C1845.04 762.625 1841.25 760.99 1838.62 757.719C1836 754.448 1834.66 749.76 1834.59 743.656V735.281C1834.59 728.927 1835.91 724.104 1838.53 720.812C1841.18 717.521 1844.98 715.875 1849.94 715.875C1854.9 715.875 1858.69 717.51 1861.31 720.781C1863.94 724.031 1865.28 728.708 1865.34 734.812V743.188ZM1856.31 734C1856.31 730.229 1855.79 727.49 1854.75 725.781C1853.73 724.052 1852.12 723.188 1849.94 723.188C1847.81 723.188 1846.24 724.01 1845.22 725.656C1844.22 727.281 1843.69 729.833 1843.62 733.312V744.375C1843.62 748.083 1844.12 750.844 1845.12 752.656C1846.15 754.448 1847.77 755.344 1850 755.344C1852.21 755.344 1853.8 754.479 1854.78 752.75C1855.76 751.021 1856.27 748.375 1856.31 744.812V734Z" fill="#5D6B79"/>
<rect x="1930" y="660" width="160" height="160" fill="white" stroke="#AAAAAA"/>
<path d="M2016.66 762H2007.62V727.188L1996.84 730.531V723.188L2015.69 716.438H2016.66V762Z" fill="#5D6B79"/>
<rect x="2090" y="660" width="160" height="160" fill="white" stroke="#AAAAAA"/>
<path d="M2185.34 743.188C2185.34 749.479 2184.04 754.292 2181.44 757.625C2178.83 760.958 2175.02 762.625 2170 762.625C2165.04 762.625 2161.25 760.99 2158.62 757.719C2156 754.448 2154.66 749.76 2154.59 743.656V735.281C2154.59 728.927 2155.91 724.104 2158.53 720.812C2161.18 717.521 2164.98 715.875 2169.94 715.875C2174.9 715.875 2178.69 717.51 2181.31 720.781C2183.94 724.031 2185.28 728.708 2185.34 734.812V743.188ZM2176.31 734C2176.31 730.229 2175.79 727.49 2174.75 725.781C2173.73 724.052 2172.12 723.188 2169.94 723.188C2167.81 723.188 2166.24 724.01 2165.22 725.656C2164.22 727.281 2163.69 729.833 2163.62 733.312V744.375C2163.62 748.083 2164.12 750.844 2165.12 752.656C2166.15 754.448 2167.77 755.344 2170 755.344C2172.21 755.344 2173.8 754.479 2174.78 752.75C2175.76 751.021 2176.27 748.375 2176.31 744.812V734Z" fill="#5D6B79"/>
<rect x="1770" y="500" width="160" height="160" fill="white" stroke="#AAAAAA"/>
<path d="M1865.34 583.188C1865.34 589.479 1864.04 594.292 1861.44 597.625C1858.83 600.958 1855.02 602.625 1850 602.625C1845.04 602.625 1841.25 600.99 1838.62 597.719C1836 594.448 1834.66 589.76 1834.59 583.656V575.281C1834.59 568.927 1835.91 564.104 1838.53 560.812C1841.18 557.521 1844.98 555.875 1849.94 555.875C1854.9 555.875 1858.69 557.51 1861.31 560.781C1863.94 564.031 1865.28 568.708 1865.34 574.812V583.188ZM1856.31 574C1856.31 570.229 1855.79 567.49 1854.75 565.781C1853.73 564.052 1852.12 563.188 1849.94 563.188C1847.81 563.188 1846.24 564.01 1845.22 565.656C1844.22 567.281 1843.69 569.833 1843.62 573.312V584.375C1843.62 588.083 1844.12 590.844 1845.12 592.656C1846.15 594.448 1847.77 595.344 1850 595.344C1852.21 595.344 1853.8 594.479 1854.78 592.75C1855.76 591.021 1856.27 588.375 1856.31 584.812V574Z" fill="#5D6B79"/>
<rect x="1930" y="500" width="160" height="160" fill="white" stroke="#AAAAAA"/>
<path d="M2025.34 583.188C2025.34 589.479 2024.04 594.292 2021.44 597.625C2018.83 600.958 2015.02 602.625 2010 602.625C2005.04 602.625 2001.25 600.99 1998.62 597.719C1996 594.448 1994.66 589.76 1994.59 583.656V575.281C1994.59 568.927 1995.91 564.104 1998.53 560.812C2001.18 557.521 2004.98 555.875 2009.94 555.875C2014.9 555.875 2018.69 557.51 2021.31 560.781C2023.94 564.031 2025.28 568.708 2025.34 574.812V583.188ZM2016.31 574C2016.31 570.229 2015.79 567.49 2014.75 565.781C2013.73 564.052 2012.12 563.188 2009.94 563.188C2007.81 563.188 2006.24 564.01 2005.22 565.656C2004.22 567.281 2003.69 569.833 2003.62 573.312V584.375C2003.62 588.083 2004.12 590.844 2005.12 592.656C2006.15 594.448 2007.77 595.344 2010 595.344C2012.21 595.344 2013.8 594.479 2014.78 592.75C2015.76 591.021 2016.27 588.375 2016.31 584.812V574Z" fill="#5D6B79"/>
<rect x="2090" y="500" width="160" height="160" fill="white" stroke="#AAAAAA"/>
<path d="M2176.66 602H2167.62V567.188L2156.84 570.531V563.188L2175.69 556.438H2176.66V602Z" fill="#5D6B79"/>
<rect x="1770" y="340" width="160" height="160" fill="white" stroke="#AAAAAA"/>
<path d="M1865.34 423.188C1865.34 429.479 1864.04 434.292 1861.44 437.625C1858.83 440.958 1855.02 442.625 1850 442.625C1845.04 442.625 1841.25 440.99 1838.62 437.719C1836 434.448 1834.66 429.76 1834.59 423.656V415.281C1834.59 408.927 1835.91 404.104 1838.53 400.812C1841.18 397.521 1844.98 395.875 1849.94 395.875C1854.9 395.875 1858.69 397.51 1861.31 400.781C1863.94 404.031 1865.28 408.708 1865.34 414.812V423.188ZM1856.31 414C1856.31 410.229 1855.79 407.49 1854.75 405.781C1853.73 404.052 1852.12 403.188 1849.94 403.188C1847.81 403.188 1846.24 404.01 1845.22 405.656C1844.22 407.281 1843.69 409.833 1843.62 413.312V424.375C1843.62 428.083 1844.12 430.844 1845.12 432.656C1846.15 434.448 1847.77 435.344 1850 435.344C1852.21 435.344 1853.8 434.479 1854.78 432.75C1855.76 431.021 1856.27 428.375 1856.31 424.812V414Z" fill="#5D6B79"/>
<rect x="1930" y="340" width="160" height="160" fill="white" stroke="#AAAAAA"/>
<path d="M2025.34 423.188C2025.34 429.479 2024.04 434.292 2021.44 437.625C2018.83 440.958 2015.02 442.625 2010 442.625C2005.04 442.625 2001.25 440.99 1998.62 437.719C1996 434.448 1994.66 429.76 1994.59 423.656V415.281C1994.59 408.927 1995.91 404.104 1998.53 400.812C2001.18 397.521 2004.98 395.875 2009.94 395.875C2014.9 395.875 2018.69 397.51 2021.31 400.781C2023.94 404.031 2025.28 408.708 2025.34 414.812V423.188ZM2016.31 414C2016.31 410.229 2015.79 407.49 2014.75 405.781C2013.73 404.052 2012.12 403.188 2009.94 403.188C2007.81 403.188 2006.24 404.01 2005.22 405.656C2004.22 407.281 2003.69 409.833 2003.62 413.312V424.375C2003.62 428.083 2004.12 430.844 2005.12 432.656C2006.15 434.448 2007.77 435.344 2010 435.344C2012.21 435.344 2013.8 434.479 2014.78 432.75C2015.76 431.021 2016.27 428.375 2016.31 424.812V414Z" fill="#5D6B79"/>
<rect x="2090" y="340" width="160" height="160" fill="white" stroke="#AAAAAA"/>
<path d="M2185.34 423.188C2185.34 429.479 2184.04 434.292 2181.44 437.625C2178.83 440.958 2175.02 442.625 2170 442.625C2165.04 442.625 2161.25 440.99 2158.62 437.719C2156 434.448 2154.66 429.76 2154.59 423.656V415.281C2154.59 408.927 2155.91 404.104 2158.53 400.812C2161.18 397.521 2164.98 395.875 2169.94 395.875C2174.9 395.875 2178.69 397.51 2181.31 400.781C2183.94 404.031 2185.28 408.708 2185.34 414.812V423.188ZM2176.31 414C2176.31 410.229 2175.79 407.49 2174.75 405.781C2173.73 404.052 2172.12 403.188 2169.94 403.188C2167.81 403.188 2166.24 404.01 2165.22 405.656C2164.22 407.281 2163.69 409.833 2163.62 413.312V424.375C2163.62 428.083 2164.12 430.844 2165.12 432.656C2166.15 434.448 2167.77 435.344 2170 435.344C2172.21 435.344 2173.8 434.479 2174.78 432.75C2175.76 431.021 2176.27 428.375 2176.31 424.812V414Z" fill="#5D6B79"/>
<rect x="1770" y="180" width="160" height="160" fill="white" stroke="#AAAAAA"/>
<path d="M1856.66 282H1847.62V247.188L1836.84 250.531V243.188L1855.69 236.438H1856.66V282Z" fill="#5D6B79"/>
<rect x="1930" y="180" width="160" height="160" fill="white" stroke="#AAAAAA"/>
<path d="M2016.66 282H2007.62V247.188L1996.84 250.531V243.188L2015.69 236.438H2016.66V282Z" fill="#5D6B79"/>
<rect x="2090" y="180" width="160" height="160" fill="white" stroke="#AAAAAA"/>
<path d="M2176.66 282H2167.62V247.188L2156.84 250.531V243.188L2175.69 236.438H2176.66V282Z" fill="#5D6B79"/>
<path d="M1700.07 151.654C1700.07 155.783 1699.21 158.941 1697.51 161.129C1695.8 163.316 1693.29 164.41 1690 164.41C1686.75 164.41 1684.26 163.337 1682.54 161.19C1680.81 159.044 1679.93 155.968 1679.89 151.962V146.466C1679.89 142.296 1680.75 139.131 1682.47 136.971C1684.21 134.811 1686.71 133.73 1689.96 133.73C1693.21 133.73 1695.7 134.804 1697.42 136.95C1699.15 139.083 1700.03 142.152 1700.07 146.158V151.654ZM1694.14 145.625C1694.14 143.15 1693.8 141.353 1693.12 140.231C1692.45 139.097 1691.39 138.529 1689.96 138.529C1688.56 138.529 1687.53 139.069 1686.86 140.149C1686.21 141.216 1685.86 142.891 1685.82 145.174V152.434C1685.82 154.867 1686.14 156.679 1686.8 157.868C1687.47 159.044 1688.54 159.632 1690 159.632C1691.45 159.632 1692.5 159.064 1693.14 157.93C1693.78 156.795 1694.12 155.059 1694.14 152.721V145.625Z" fill="#5D6B79"/>
<path d="M1854.37 164H1848.44V141.154L1841.37 143.349V138.529L1853.73 134.1H1854.37V164Z" fill="#5D6B79"/>
<path d="M2020.44 164H1999.97V159.939L2009.63 149.645C2010.96 148.195 2011.93 146.931 2012.56 145.851C2013.21 144.771 2013.53 143.745 2013.53 142.774C2013.53 141.448 2013.19 140.409 2012.52 139.657C2011.85 138.892 2010.9 138.509 2009.65 138.509C2008.31 138.509 2007.25 138.974 2006.47 139.903C2005.71 140.819 2005.32 142.029 2005.32 143.533H1999.38C1999.38 141.715 1999.81 140.054 2000.67 138.55C2001.54 137.046 2002.77 135.87 2004.36 135.022C2005.95 134.161 2007.74 133.73 2009.75 133.73C2012.83 133.73 2015.22 134.469 2016.91 135.945C2018.62 137.422 2019.47 139.507 2019.47 142.2C2019.47 143.677 2019.09 145.181 2018.33 146.712C2017.56 148.243 2016.25 150.027 2014.39 152.064L2007.6 159.222H2020.44V164Z" fill="#5D6B79"/>
<path d="M2166 146.445H2169.16C2170.66 146.445 2171.78 146.069 2172.5 145.317C2173.23 144.565 2173.59 143.567 2173.59 142.323C2173.59 141.12 2173.23 140.184 2172.5 139.514C2171.79 138.844 2170.81 138.509 2169.55 138.509C2168.41 138.509 2167.46 138.823 2166.7 139.452C2165.93 140.067 2165.55 140.874 2165.55 141.872H2159.62C2159.62 140.313 2160.04 138.919 2160.87 137.688C2161.72 136.444 2162.9 135.474 2164.4 134.776C2165.92 134.079 2167.59 133.73 2169.41 133.73C2172.56 133.73 2175.04 134.489 2176.83 136.007C2178.62 137.511 2179.52 139.589 2179.52 142.241C2179.52 143.608 2179.1 144.866 2178.26 146.015C2177.43 147.163 2176.34 148.045 2174.98 148.66C2176.67 149.262 2177.92 150.164 2178.74 151.367C2179.57 152.57 2179.99 153.992 2179.99 155.633C2179.99 158.285 2179.02 160.411 2177.08 162.011C2175.15 163.61 2172.59 164.41 2169.41 164.41C2166.42 164.41 2163.98 163.624 2162.08 162.052C2160.2 160.479 2159.25 158.401 2159.25 155.817H2165.18C2165.18 156.938 2165.6 157.854 2166.43 158.565C2167.28 159.276 2168.32 159.632 2169.55 159.632C2170.96 159.632 2172.06 159.263 2172.85 158.524C2173.66 157.772 2174.06 156.781 2174.06 155.551C2174.06 152.57 2172.42 151.08 2169.14 151.08H2166V146.445Z" fill="#5D6B79"/>
<path d="M1590.07 261.654C1590.07 265.783 1589.21 268.941 1587.51 271.129C1585.8 273.316 1583.29 274.41 1580 274.41C1576.75 274.41 1574.26 273.337 1572.54 271.19C1570.81 269.044 1569.93 265.968 1569.89 261.962V256.466C1569.89 252.296 1570.75 249.131 1572.47 246.971C1574.21 244.811 1576.71 243.73 1579.96 243.73C1583.21 243.73 1585.7 244.804 1587.42 246.95C1589.15 249.083 1590.03 252.152 1590.07 256.158V261.654ZM1584.14 255.625C1584.14 253.15 1583.8 251.353 1583.12 250.231C1582.45 249.097 1581.39 248.529 1579.96 248.529C1578.56 248.529 1577.53 249.069 1576.86 250.149C1576.21 251.216 1575.86 252.891 1575.82 255.174V262.434C1575.82 264.867 1576.14 266.679 1576.8 267.868C1577.47 269.044 1578.54 269.632 1580 269.632C1581.45 269.632 1582.5 269.064 1583.14 267.93C1583.78 266.795 1584.12 265.059 1584.14 262.721V255.625Z" fill="#5D6B79"/>
<path d="M1584.37 434H1578.44V411.154L1571.37 413.349V408.529L1583.73 404.1H1584.37V434Z" fill="#5D6B79"/>
<path d="M1590.44 594H1569.97V589.939L1579.63 579.645C1580.96 578.195 1581.93 576.931 1582.56 575.851C1583.21 574.771 1583.53 573.745 1583.53 572.774C1583.53 571.448 1583.19 570.409 1582.52 569.657C1581.85 568.892 1580.9 568.509 1579.65 568.509C1578.31 568.509 1577.25 568.974 1576.47 569.903C1575.71 570.819 1575.32 572.029 1575.32 573.533H1569.38C1569.38 571.715 1569.81 570.054 1570.67 568.55C1571.54 567.046 1572.77 565.87 1574.36 565.022C1575.95 564.161 1577.74 563.73 1579.75 563.73C1582.83 563.73 1585.22 564.469 1586.91 565.945C1588.62 567.422 1589.47 569.507 1589.47 572.2C1589.47 573.677 1589.09 575.181 1588.33 576.712C1587.56 578.243 1586.25 580.027 1584.39 582.064L1577.6 589.222H1590.44V594Z" fill="#5D6B79"/>
<path d="M1576 736.445H1579.16C1580.66 736.445 1581.78 736.069 1582.5 735.317C1583.23 734.565 1583.59 733.567 1583.59 732.323C1583.59 731.12 1583.23 730.184 1582.5 729.514C1581.79 728.844 1580.81 728.509 1579.55 728.509C1578.41 728.509 1577.46 728.823 1576.7 729.452C1575.93 730.067 1575.55 730.874 1575.55 731.872H1569.62C1569.62 730.313 1570.04 728.919 1570.87 727.688C1571.72 726.444 1572.9 725.474 1574.4 724.776C1575.92 724.079 1577.59 723.73 1579.41 723.73C1582.56 723.73 1585.04 724.489 1586.83 726.007C1588.62 727.511 1589.52 729.589 1589.52 732.241C1589.52 733.608 1589.1 734.866 1588.26 736.015C1587.43 737.163 1586.34 738.045 1584.98 738.66C1586.67 739.262 1587.92 740.164 1588.74 741.367C1589.57 742.57 1589.99 743.992 1589.99 745.633C1589.99 748.285 1589.02 750.411 1587.08 752.011C1585.15 753.61 1582.59 754.41 1579.41 754.41C1576.42 754.41 1573.98 753.624 1572.08 752.052C1570.2 750.479 1569.25 748.401 1569.25 745.817H1575.18C1575.18 746.938 1575.6 747.854 1576.43 748.565C1577.28 749.276 1578.32 749.632 1579.55 749.632C1580.96 749.632 1582.06 749.263 1582.85 748.524C1583.66 747.772 1584.06 746.781 1584.06 745.551C1584.06 742.57 1582.42 741.08 1579.14 741.08H1576V736.445Z" fill="#5D6B79"/>
<path d="M914 270V670H1314L914 270ZM914 270H1314" stroke="#FFAB40" stroke-width="6" stroke-linecap="round" stroke-linejoin="round"/>
<circle cx="914" cy="270" r="100" fill="url(#paint0_linear)"/>
<path d="M929.344 273.188C929.344 279.479 928.042 284.292 925.438 287.625C922.833 290.958 919.021 292.625 914 292.625C909.042 292.625 905.25 290.99 902.625 287.719C900 284.448 898.656 279.76 898.594 273.656V265.281C898.594 258.927 899.906 254.104 902.531 250.812C905.177 247.521 908.979 245.875 913.938 245.875C918.896 245.875 922.688 247.51 925.312 250.781C927.938 254.031 929.281 258.708 929.344 264.812V273.188ZM920.312 264C920.312 260.229 919.792 257.49 918.75 255.781C917.729 254.052 916.125 253.188 913.938 253.188C911.812 253.188 910.24 254.01 909.219 255.656C908.219 257.281 907.688 259.833 907.625 263.312V274.375C907.625 278.083 908.125 280.844 909.125 282.656C910.146 284.448 911.771 285.344 914 285.344C916.208 285.344 917.802 284.479 918.781 282.75C919.76 281.021 920.271 278.375 920.312 274.812V264Z" fill="white"/>
<circle cx="914" cy="670" r="100" fill="url(#paint1_linear)"/>
<path d="M929.906 692H898.719V685.812L913.438 670.125C915.458 667.917 916.948 665.99 917.906 664.344C918.885 662.698 919.375 661.135 919.375 659.656C919.375 657.635 918.865 656.052 917.844 654.906C916.823 653.74 915.365 653.156 913.469 653.156C911.427 653.156 909.812 653.865 908.625 655.281C907.458 656.677 906.875 658.521 906.875 660.812H897.812C897.812 658.042 898.469 655.51 899.781 653.219C901.115 650.927 902.99 649.135 905.406 647.844C907.823 646.531 910.562 645.875 913.625 645.875C918.312 645.875 921.948 647 924.531 649.25C927.135 651.5 928.438 654.677 928.438 658.781C928.438 661.031 927.854 663.323 926.688 665.656C925.521 667.99 923.521 670.708 920.688 673.812L910.344 684.719H929.906V692Z" fill="white"/>
<circle cx="1314" cy="270" r="100" fill="url(#paint2_linear)"/>
<path d="M1320.66 292H1311.62V257.188L1300.84 260.531V253.188L1319.69 246.438H1320.66V292Z" fill="white"/>
<circle cx="1314" cy="670" r="100" fill="url(#paint3_linear)"/>
<path d="M1307.91 665.25H1312.72C1315.01 665.25 1316.71 664.677 1317.81 663.531C1318.92 662.385 1319.47 660.865 1319.47 658.969C1319.47 657.135 1318.92 655.708 1317.81 654.688C1316.73 653.667 1315.23 653.156 1313.31 653.156C1311.58 653.156 1310.14 653.635 1308.97 654.594C1307.8 655.531 1307.22 656.76 1307.22 658.281H1298.19C1298.19 655.906 1298.82 653.781 1300.09 651.906C1301.39 650.01 1303.18 648.531 1305.47 647.469C1307.78 646.406 1310.32 645.875 1313.09 645.875C1317.91 645.875 1321.68 647.031 1324.41 649.344C1327.14 651.635 1328.5 654.802 1328.5 658.844C1328.5 660.927 1327.86 662.844 1326.59 664.594C1325.32 666.344 1323.66 667.688 1321.59 668.625C1324.16 669.542 1326.06 670.917 1327.31 672.75C1328.58 674.583 1329.22 676.75 1329.22 679.25C1329.22 683.292 1327.74 686.531 1324.78 688.969C1321.84 691.406 1317.95 692.625 1313.09 692.625C1308.55 692.625 1304.83 691.427 1301.94 689.031C1299.06 686.635 1297.62 683.469 1297.62 679.531H1306.66C1306.66 681.24 1307.29 682.635 1308.56 683.719C1309.85 684.802 1311.44 685.344 1313.31 685.344C1315.46 685.344 1317.14 684.781 1318.34 683.656C1319.57 682.51 1320.19 681 1320.19 679.125C1320.19 674.583 1317.69 672.312 1312.69 672.312H1307.91V665.25Z" fill="white"/>
<rect x="198" y="120" width="160" height="160" fill="white" stroke="#AAAAAA"/>
<path d="M284.656 222H275.625V187.188L264.844 190.531V183.188L283.688 176.438H284.656V222Z" fill="#5D6B79"/>
<rect x="358" y="120" width="160" height="160" fill="white" stroke="#AAAAAA"/>
<path d="M453.906 222H422.719V215.812L437.438 200.125C439.458 197.917 440.948 195.99 441.906 194.344C442.885 192.698 443.375 191.135 443.375 189.656C443.375 187.635 442.865 186.052 441.844 184.906C440.823 183.74 439.365 183.156 437.469 183.156C435.427 183.156 433.812 183.865 432.625 185.281C431.458 186.677 430.875 188.521 430.875 190.812H421.812C421.812 188.042 422.469 185.51 423.781 183.219C425.115 180.927 426.99 179.135 429.406 177.844C431.823 176.531 434.562 175.875 437.625 175.875C442.312 175.875 445.948 177 448.531 179.25C451.135 181.5 452.438 184.677 452.438 188.781C452.438 191.031 451.854 193.323 450.688 195.656C449.521 197.99 447.521 200.708 444.688 203.812L434.344 214.719H453.906V222Z" fill="#5D6B79"/>
<rect x="518" y="120" width="160" height="160" fill="white" stroke="#AAAAAA"/>
<path d="M591.906 195.25H596.719C599.01 195.25 600.708 194.677 601.812 193.531C602.917 192.385 603.469 190.865 603.469 188.969C603.469 187.135 602.917 185.708 601.812 184.688C600.729 183.667 599.229 183.156 597.312 183.156C595.583 183.156 594.135 183.635 592.969 184.594C591.802 185.531 591.219 186.76 591.219 188.281H582.188C582.188 185.906 582.823 183.781 584.094 181.906C585.385 180.01 587.177 178.531 589.469 177.469C591.781 176.406 594.323 175.875 597.094 175.875C601.906 175.875 605.677 177.031 608.406 179.344C611.135 181.635 612.5 184.802 612.5 188.844C612.5 190.927 611.865 192.844 610.594 194.594C609.323 196.344 607.656 197.688 605.594 198.625C608.156 199.542 610.062 200.917 611.312 202.75C612.583 204.583 613.219 206.75 613.219 209.25C613.219 213.292 611.74 216.531 608.781 218.969C605.844 221.406 601.948 222.625 597.094 222.625C592.552 222.625 588.833 221.427 585.938 219.031C583.062 216.635 581.625 213.469 581.625 209.531H590.656C590.656 211.24 591.292 212.635 592.562 213.719C593.854 214.802 595.438 215.344 597.312 215.344C599.458 215.344 601.135 214.781 602.344 213.656C603.573 212.51 604.188 211 604.188 209.125C604.188 204.583 601.688 202.312 596.688 202.312H591.906V195.25Z" fill="#5D6B79"/>
<rect x="198" y="300" width="160" height="160" fill="white" stroke="#AAAAAA"/>
<path d="M293.344 383.188C293.344 389.479 292.042 394.292 289.438 397.625C286.833 400.958 283.021 402.625 278 402.625C273.042 402.625 269.25 400.99 266.625 397.719C264 394.448 262.656 389.76 262.594 383.656V375.281C262.594 368.927 263.906 364.104 266.531 360.812C269.177 357.521 272.979 355.875 277.938 355.875C282.896 355.875 286.688 357.51 289.312 360.781C291.938 364.031 293.281 368.708 293.344 374.812V383.188ZM284.312 374C284.312 370.229 283.792 367.49 282.75 365.781C281.729 364.052 280.125 363.188 277.938 363.188C275.812 363.188 274.24 364.01 273.219 365.656C272.219 367.281 271.688 369.833 271.625 373.312V384.375C271.625 388.083 272.125 390.844 273.125 392.656C274.146 394.448 275.771 395.344 278 395.344C280.208 395.344 281.802 394.479 282.781 392.75C283.76 391.021 284.271 388.375 284.312 384.812V374Z" fill="#5D6B79"/>
<rect x="198" y="480" width="160" height="160" fill="white" stroke="#AAAAAA"/>
<path d="M293.344 563.188C293.344 569.479 292.042 574.292 289.438 577.625C286.833 580.958 283.021 582.625 278 582.625C273.042 582.625 269.25 580.99 266.625 577.719C264 574.448 262.656 569.76 262.594 563.656V555.281C262.594 548.927 263.906 544.104 266.531 540.812C269.177 537.521 272.979 535.875 277.938 535.875C282.896 535.875 286.688 537.51 289.312 540.781C291.938 544.031 293.281 548.708 293.344 554.812V563.188ZM284.312 554C284.312 550.229 283.792 547.49 282.75 545.781C281.729 544.052 280.125 543.188 277.938 543.188C275.812 543.188 274.24 544.01 273.219 545.656C272.219 547.281 271.688 549.833 271.625 553.312V564.375C271.625 568.083 272.125 570.844 273.125 572.656C274.146 574.448 275.771 575.344 278 575.344C280.208 575.344 281.802 574.479 282.781 572.75C283.76 571.021 284.271 568.375 284.312 564.812V554Z" fill="#5D6B79"/>
<rect x="358" y="480" width="160" height="160" fill="white" stroke="#AAAAAA"/>
<path d="M431.906 555.25H436.719C439.01 555.25 440.708 554.677 441.812 553.531C442.917 552.385 443.469 550.865 443.469 548.969C443.469 547.135 442.917 545.708 441.812 544.688C440.729 543.667 439.229 543.156 437.312 543.156C435.583 543.156 434.135 543.635 432.969 544.594C431.802 545.531 431.219 546.76 431.219 548.281H422.188C422.188 545.906 422.823 543.781 424.094 541.906C425.385 540.01 427.177 538.531 429.469 537.469C431.781 536.406 434.323 535.875 437.094 535.875C441.906 535.875 445.677 537.031 448.406 539.344C451.135 541.635 452.5 544.802 452.5 548.844C452.5 550.927 451.865 552.844 450.594 554.594C449.323 556.344 447.656 557.688 445.594 558.625C448.156 559.542 450.062 560.917 451.312 562.75C452.583 564.583 453.219 566.75 453.219 569.25C453.219 573.292 451.74 576.531 448.781 578.969C445.844 581.406 441.948 582.625 437.094 582.625C432.552 582.625 428.833 581.427 425.938 579.031C423.062 576.635 421.625 573.469 421.625 569.531H430.656C430.656 571.24 431.292 572.635 432.562 573.719C433.854 574.802 435.438 575.344 437.312 575.344C439.458 575.344 441.135 574.781 442.344 573.656C443.573 572.51 444.188 571 444.188 569.125C444.188 564.583 441.688 562.312 436.688 562.312H431.906V555.25Z" fill="#5D6B79"/>
<rect x="198" y="660" width="160" height="160" fill="white" stroke="#AAAAAA"/>
<path d="M293.344 743.188C293.344 749.479 292.042 754.292 289.438 757.625C286.833 760.958 283.021 762.625 278 762.625C273.042 762.625 269.25 760.99 266.625 757.719C264 754.448 262.656 749.76 262.594 743.656V735.281C262.594 728.927 263.906 724.104 266.531 720.812C269.177 717.521 272.979 715.875 277.938 715.875C282.896 715.875 286.688 717.51 289.312 720.781C291.938 724.031 293.281 728.708 293.344 734.812V743.188ZM284.312 734C284.312 730.229 283.792 727.49 282.75 725.781C281.729 724.052 280.125 723.188 277.938 723.188C275.812 723.188 274.24 724.01 273.219 725.656C272.219 727.281 271.688 729.833 271.625 733.312V744.375C271.625 748.083 272.125 750.844 273.125 752.656C274.146 754.448 275.771 755.344 278 755.344C280.208 755.344 281.802 754.479 282.781 752.75C283.76 751.021 284.271 748.375 284.312 744.812V734Z" fill="#5D6B79"/>
<rect x="358" y="660" width="160" height="160" fill="white" stroke="#AAAAAA"/>
<path d="M453.906 762H422.719V755.812L437.438 740.125C439.458 737.917 440.948 735.99 441.906 734.344C442.885 732.698 443.375 731.135 443.375 729.656C443.375 727.635 442.865 726.052 441.844 724.906C440.823 723.74 439.365 723.156 437.469 723.156C435.427 723.156 433.812 723.865 432.625 725.281C431.458 726.677 430.875 728.521 430.875 730.812H421.812C421.812 728.042 422.469 725.51 423.781 723.219C425.115 720.927 426.99 719.135 429.406 717.844C431.823 716.531 434.562 715.875 437.625 715.875C442.312 715.875 445.948 717 448.531 719.25C451.135 721.5 452.438 724.677 452.438 728.781C452.438 731.031 451.854 733.323 450.688 735.656C449.521 737.99 447.521 740.708 444.688 743.812L434.344 754.719H453.906V762Z" fill="#5D6B79"/>
<path d="M157.844 203.188C157.844 209.479 156.542 214.292 153.938 217.625C151.333 220.958 147.521 222.625 142.5 222.625C137.542 222.625 133.75 220.99 131.125 217.719C128.5 214.448 127.156 209.76 127.094 203.656V195.281C127.094 188.927 128.406 184.104 131.031 180.812C133.677 177.521 137.479 175.875 142.438 175.875C147.396 175.875 151.188 177.51 153.812 180.781C156.438 184.031 157.781 188.708 157.844 194.812V203.188ZM148.812 194C148.812 190.229 148.292 187.49 147.25 185.781C146.229 184.052 144.625 183.188 142.438 183.188C140.312 183.188 138.74 184.01 137.719 185.656C136.719 187.281 136.188 189.833 136.125 193.312V204.375C136.125 208.083 136.625 210.844 137.625 212.656C138.646 214.448 140.271 215.344 142.5 215.344C144.708 215.344 146.302 214.479 147.281 212.75C148.26 211.021 148.771 208.375 148.812 204.812V194Z" fill="#5D6B79"/>
<path d="M149.156 402H140.125V367.188L129.344 370.531V363.188L148.188 356.438H149.156V402Z" fill="#5D6B79"/>
<path d="M158.406 582H127.219V575.812L141.938 560.125C143.958 557.917 145.448 555.99 146.406 554.344C147.385 552.698 147.875 551.135 147.875 549.656C147.875 547.635 147.365 546.052 146.344 544.906C145.323 543.74 143.865 543.156 141.969 543.156C139.927 543.156 138.312 543.865 137.125 545.281C135.958 546.677 135.375 548.521 135.375 550.812H126.312C126.312 548.042 126.969 545.51 128.281 543.219C129.615 540.927 131.49 539.135 133.906 537.844C136.323 536.531 139.062 535.875 142.125 535.875C146.812 535.875 150.448 537 153.031 539.25C155.635 541.5 156.938 544.677 156.938 548.781C156.938 551.031 156.354 553.323 155.188 555.656C154.021 557.99 152.021 560.708 149.188 563.812L138.844 574.719H158.406V582Z" fill="#5D6B79"/>
<path d="M136.406 735.25H141.219C143.51 735.25 145.208 734.677 146.312 733.531C147.417 732.385 147.969 730.865 147.969 728.969C147.969 727.135 147.417 725.708 146.312 724.688C145.229 723.667 143.729 723.156 141.812 723.156C140.083 723.156 138.635 723.635 137.469 724.594C136.302 725.531 135.719 726.76 135.719 728.281H126.688C126.688 725.906 127.323 723.781 128.594 721.906C129.885 720.01 131.677 718.531 133.969 717.469C136.281 716.406 138.823 715.875 141.594 715.875C146.406 715.875 150.177 717.031 152.906 719.344C155.635 721.635 157 724.802 157 728.844C157 730.927 156.365 732.844 155.094 734.594C153.823 736.344 152.156 737.688 150.094 738.625C152.656 739.542 154.562 740.917 155.812 742.75C157.083 744.583 157.719 746.75 157.719 749.25C157.719 753.292 156.24 756.531 153.281 758.969C150.344 761.406 146.448 762.625 141.594 762.625C137.052 762.625 133.333 761.427 130.438 759.031C127.562 756.635 126.125 753.469 126.125 749.531H135.156C135.156 751.24 135.792 752.635 137.062 753.719C138.354 754.802 139.938 755.344 141.812 755.344C143.958 755.344 145.635 754.781 146.844 753.656C148.073 752.51 148.688 751 148.688 749.125C148.688 744.583 146.188 742.312 141.188 742.312H136.406V735.25Z" fill="#5D6B79"/>
<defs>
<linearGradient id="paint0_linear" x1="914" y1="170" x2="914" y2="370" gradientUnits="userSpaceOnUse">
<stop stop-color="#5C86D6"/>
<stop offset="1" stop-color="#3D598F"/>
</linearGradient>
<linearGradient id="paint1_linear" x1="914" y1="570" x2="914" y2="770" gradientUnits="userSpaceOnUse">
<stop stop-color="#5C86D6"/>
<stop offset="1" stop-color="#3D598F"/>
</linearGradient>
<linearGradient id="paint2_linear" x1="1314" y1="170" x2="1314" y2="370" gradientUnits="userSpaceOnUse">
<stop stop-color="#5C86D6"/>
<stop offset="1" stop-color="#3D598F"/>
</linearGradient>
<linearGradient id="paint3_linear" x1="1314" y1="570" x2="1314" y2="770" gradientUnits="userSpaceOnUse">
<stop stop-color="#5C86D6"/>
<stop offset="1" stop-color="#3D598F"/>
</linearGradient>
</defs>
</svg>
